<?xml version="1.0" encoding="UTF-8"?>
<svg id="Calque_2" data-name="Calque 2" xmlns="http://www.w3.org/2000/svg" viewBox="0 0 739.68 281.32">
  <defs>
    <style>
      .cls-1 {
        fill: #02735e;
      }
    </style>
  </defs>
  <g id="Calque_1-2" data-name="Calque 1">
    <g>
      <g>
        <path class="cls-1" d="M128.17,87.99c-5.98-10.06-14.11-18.11-24.43-24.17-10.32-6.05-22.05-9.07-35.17-9.07s-24.87,2.89-35.19,8.68c-10.32,5.81-18.45,13.68-24.43,23.66C2.99,97.08,0,108.47,0,121.25v140.11h36.32v-84.76c2.65,2.1,5.57,3.98,8.71,5.64,7.84,4.2,16.38,6.27,25.57,6.27,13.15,0,24.7-2.85,34.68-8.56,9.96-5.72,17.78-13.65,23.4-23.78,5.62-10.15,8.44-21.78,8.44-34.93,0-12.11-2.99-23.18-8.95-33.26ZM96.7,137.87c-2.73,4.97-6.51,8.92-11.38,11.92-4.85,2.97-10.44,4.46-16.74,4.46s-11.65-1.5-16.5-4.46c-4.87-2.99-8.71-6.95-11.53-11.92-2.8-4.94-4.22-10.4-4.22-16.35s1.42-11.43,4.22-16.38c2.82-4.94,6.66-8.88,11.53-11.77,4.85-2.89,10.35-4.34,16.5-4.34s11.89,1.45,16.74,4.34c4.87,2.89,8.66,6.83,11.38,11.77,2.73,4.94,4.1,10.4,4.1,16.38s-1.37,11.41-4.1,16.35Z"/>
        <path class="cls-1" d="M223.84,153.23c6.31,0,11.55-1.66,15.73-4.99,4.18-3.33,7.29-7.76,9.34-13.3,2.05-5.54,3.07-11.55,3.07-18.04v-58.58h36.33v62.93c0,12.45-2.43,23.75-7.29,33.89-4.86,10.15-12.07,18.21-21.61,24.17-9.55,5.97-21.4,8.95-35.56,8.95s-25.75-2.99-35.3-8.95c-9.55-5.97-16.76-14.07-21.62-24.3-4.86-10.23-7.29-21.49-7.29-33.77v-62.93h36.32v58.84c0,6.31,1.02,12.24,3.07,17.78,2.05,5.54,5.16,9.98,9.34,13.3,4.18,3.33,9.34,4.99,15.48,4.99Z"/>
        <path class="cls-1" d="M321.81,0h36.32v261.37h-36.32V0Z"/>
        <path class="cls-1" d="M461.44,185.81c-12.8,3.62-24.26,4.33-34.35,2.13-10.11-2.2-18.97-7.09-26.61-14.68l21.74-21.83c4.18,4.14,8.63,6.73,13.36,7.79,4.73,1.06,10.13.73,16.2-.99,3.77-1.07,6.89-2.43,9.34-4.1,2.45-1.67,4.21-3.58,5.29-5.75,1.07-2.16,1.26-4.48.57-6.94-.93-3.28-3.25-5.24-6.98-5.87-3.73-.63-8.23-.73-13.51-.3-5.29.43-10.98.8-17.1,1.11-6.12.31-12.07-.05-17.85-1.07-5.78-1.02-10.94-3.42-15.46-7.2-4.52-3.77-7.9-9.6-10.12-17.48-2.09-7.38-1.96-14.6.4-21.64,2.35-7.04,6.73-13.33,13.14-18.86,6.41-5.53,14.62-9.71,24.63-12.54,8.86-2.5,16.84-3.43,23.94-2.78,7.1.65,13.38,2.33,18.84,5.05,5.46,2.71,10.1,6.1,13.9,10.16l-21.74,21.83c-3.06-3.92-6.98-6.35-11.77-7.31-4.79-.95-9.64-.73-14.57.66-2.79.79-5.2,1.96-7.25,3.51-2.04,1.55-3.5,3.29-4.37,5.22-.87,1.93-1.01,3.96-.41,6.09.93,3.28,3.23,5.33,6.92,6.15,3.69.82,8.21,1,13.58.55,5.36-.45,11.1-.83,17.22-1.14,6.12-.31,12.03.1,17.76,1.23,5.72,1.13,10.87,3.53,15.46,7.2,4.58,3.67,7.94,9.28,10.07,16.83,2.32,8.21,1.94,15.98-1.12,23.31-3.07,7.34-8.06,13.8-14.99,19.39-6.93,5.59-14.98,9.69-24.17,12.28Z"/>
        <path class="cls-1" d="M644.89,117.92c0-11.6-2.51-22.26-7.55-31.98-5.02-9.72-12.23-17.51-21.61-23.4-9.38-5.89-20.82-8.83-34.27-8.83s-24.39,3.04-34.27,9.09c-9.89,6.05-17.61,14.16-23.16,24.29-5.55,10.15-8.32,21.27-8.32,33.38,0,13.48,2.99,25.28,8.95,35.43,5.98,10.15,14.21,18.09,24.7,23.78,10.49,5.72,22.29,8.59,35.43,8.59s25.28-3.11,35.43-9.33c10.13-6.22,17.95-15.05,23.4-26.48l-27.88-14.06c-2.89,5.79-7.12,10.3-12.66,13.56-5.55,3.23-11.72,4.85-18.55,4.85-7.16,0-13.34-1.57-18.55-4.73-5.21-3.16-9.21-7.55-12.01-13.17-1.59-3.16-2.65-6.58-3.26-10.23h94.19v-10.76ZM552.3,108.47c1.01-4.27,2.77-8.15,5.23-11.65,2.48-3.5,5.72-6.27,9.72-8.32,4-2.03,8.66-3.06,13.94-3.06s9.65.99,13.56,2.94c3.93,1.98,7.12,4.7,9.6,8.2,2.46,3.5,3.96,7.45,4.49,11.89h-56.54Z"/>
      </g>
      <g>
        <path class="cls-1" d="M396.35,221.06c2.93-1.87,6.39-2.8,10.38-2.8s7.36.89,10.42,2.68c3.06,1.79,5.46,4.33,7.19,7.62,1.74,3.29,2.61,7.11,2.61,11.47s-.87,8.19-2.61,11.51c-1.74,3.32-4.15,5.88-7.23,7.7s-6.54,2.72-10.38,2.72c-4.04,0-7.53-.92-10.46-2.76-2.93-1.84-5.07-4.24-6.42-7.19v9.33h-5.36v-57.54h5.36v24.49c1.4-2.95,3.56-5.37,6.49-7.23ZM419.36,230.89c-1.37-2.57-3.25-4.52-5.64-5.87-2.38-1.35-5.08-2.02-8.09-2.02s-5.56.7-7.97,2.1c-2.41,1.4-4.32,3.39-5.72,5.99-1.4,2.59-2.1,5.6-2.1,9.02s.7,6.43,2.1,9.02c1.4,2.59,3.3,4.59,5.72,5.99,2.41,1.4,5.07,2.1,7.97,2.1s5.7-.69,8.09-2.06c2.38-1.37,4.26-3.37,5.64-5.99,1.37-2.62,2.06-5.66,2.06-9.14s-.69-6.57-2.06-9.14Z"/>
        <path class="cls-1" d="M471.97,218.88l-25.19,62.44h-5.68l8.24-20.22-17.42-42.22h5.99l14.46,36.23,14-36.23h5.6Z"/>
        <path class="cls-1" d="M527.02,252.39h-19.44l-2.96,8.94h-16.02l19.98-54.82h17.57l19.9,54.82h-16.09l-2.95-8.94ZM523.21,240.73l-5.91-17.73-5.83,17.73h11.74Z"/>
        <path class="cls-1" d="M556.02,257.33c-4.09-3.03-6.3-7.37-6.61-13.02h16.25c.16,1.92.73,3.32,1.71,4.2.98.88,2.25,1.32,3.81,1.32,1.4,0,2.55-.35,3.46-1.05.9-.7,1.36-1.67,1.36-2.92,0-1.61-.75-2.85-2.25-3.73-1.51-.88-3.94-1.87-7.31-2.95-3.58-1.19-6.47-2.35-8.67-3.46-2.2-1.11-4.12-2.75-5.75-4.9-1.63-2.15-2.45-4.96-2.45-8.44s.88-6.54,2.65-9.06c1.76-2.51,4.2-4.42,7.31-5.71,3.11-1.3,6.64-1.94,10.57-1.94,6.38,0,11.47,1.49,15.28,4.47,3.81,2.98,5.84,7.17,6.11,12.56h-16.56c-.05-1.66-.56-2.9-1.52-3.73s-2.19-1.24-3.69-1.24c-1.14,0-2.07.34-2.8,1.01s-1.09,1.63-1.09,2.88c0,1.04.4,1.93,1.2,2.68.8.75,1.8,1.4,2.99,1.94s2.96,1.23,5.29,2.06c3.47,1.19,6.34,2.37,8.59,3.54,2.25,1.17,4.2,2.8,5.83,4.9s2.45,4.76,2.45,7.97-.82,6.19-2.45,8.79c-1.63,2.59-3.99,4.64-7.08,6.14-3.09,1.5-6.73,2.25-10.92,2.25-6.38,0-11.61-1.52-15.71-4.55Z"/>
        <path class="cls-1" d="M640.54,206.52v12.13h-14.62v42.69h-15.24v-42.69h-14.46v-12.13h44.32Z"/>
        <path class="cls-1" d="M661.45,218.73v8.94h17.49v11.59h-17.49v9.87h19.83v12.21h-35.07v-54.82h35.07v12.21h-19.83Z"/>
        <path class="cls-1" d="M721.25,261.34l-17.18-24.03v24.03h-15.24v-54.82h15.24v23.64l17.03-23.64h17.57l-20.14,26.59,21.15,28.23h-18.43Z"/>
      </g>
    </g>
  </g>
</svg>